HIERARCHY
ROOT Hips
{
  OFFSET 43.0842 91.1655 101.099
  CHANNELS 6 Xposition Yposition Zposition Zrotation Xrotation Yrotation
  JOINT LeftUpLeg
  {
    OFFSET 8.64259 1.95398 -2.38835
    CHANNELS 3 Zrotation Xrotation Yrotation
    JOINT LeftLeg
    {
      OFFSET 43.7702 0 0
      CHANNELS 3 Zrotation Xrotation Yrotation
      JOINT LeftFoot
      {
        OFFSET 40.6238 0 0
        CHANNELS 3 Zrotation Xrotation Yrotation
        JOINT LeftToeBase
        {
          OFFSET 12.7242 0 0
          CHANNELS 3 Zrotation Xrotation Yrotation
          End Site
          {
            OFFSET 0 0 0
          }
        }
      }
    }
  }
  JOINT RightUpLeg
  {
    OFFSET -8.2249 1.95398 -2.59336
    CHANNELS 3 Zrotation Xrotation Yrotation
    JOINT RightLeg
    {
      OFFSET 43.5653 0 0
      CHANNELS 3 Zrotation Xrotation Yrotation
      JOINT RightFoot
      {
        OFFSET 40.6238 0 0
        CHANNELS 3 Zrotation Xrotation Yrotation
        JOINT RightToeBase
        {
          OFFSET 12.7242 0 0
          CHANNELS 3 Zrotation Xrotation Yrotation
          End Site
          {
            OFFSET 0 0 0
          }
        }
      }
    }
  }
  JOINT Spine
  {
    OFFSET 0.165834 0.87714 6.61349
    CHANNELS 3 Zrotation Xrotation Yrotation
    JOINT Spine1
    {
      OFFSET 7.38963 1.71661e-005 0
      CHANNELS 3 Zrotation Xrotation Yrotation
      JOINT Spine2
      {
        OFFSET 11.9445 1.14441e-005 0
        CHANNELS 3 Zrotation Xrotation Yrotation
        JOINT Spine3
        {
          OFFSET 14.7254 4.19617e-005 0
          CHANNELS 3 Zrotation Xrotation Yrotation
          JOINT Spine4
          {
            OFFSET 10.9679 0 0
            CHANNELS 3 Zrotation Xrotation Yrotation
            JOINT RightShoulder
            {
              OFFSET 2.46616 -1.6653 3.69651
              CHANNELS 3 Zrotation Xrotation Yrotation
              JOINT RightArm
              {
                OFFSET 13.0012 0 0
                CHANNELS 3 Zrotation Xrotation Yrotation
                JOINT RightForeArm
                {
                  OFFSET 28.7848 1.52588e-005 0
                  CHANNELS 3 Zrotation Xrotation Yrotation
                  JOINT RightHand
                  {
                    OFFSET 26.5688 1.52588e-005 0
                    CHANNELS 3 Zrotation Xrotation Yrotation
                    End Site
                    {
                      OFFSET 0 0 0
                    }
                  }
                }
              }
            }
            JOINT LeftShoulder
            {
              OFFSET 2.38034 -1.29275 -3.7523
              CHANNELS 3 Zrotation Xrotation Yrotation
              JOINT LeftArm
              {
                OFFSET 16.3182 6.10351e-005 0
                CHANNELS 3 Zrotation Xrotation Yrotation
                JOINT LeftForeArm
                {
                  OFFSET 27.0901 0 0
                  CHANNELS 3 Zrotation Xrotation Yrotation
                  JOINT LeftHand
                  {
                    OFFSET 24.5451 1.52588e-005 0
                    CHANNELS 3 Zrotation Xrotation Yrotation
                    End Site
                    {
                      OFFSET 0 0 0
                    }
                  }
                }
              }
            }
            JOINT Neck
            {
              OFFSET 5.0226 -0.0266342 0
              CHANNELS 3 Zrotation Xrotation Yrotation
              JOINT Head
              {
                OFFSET 6.69364 2.86102e-005 0
                CHANNELS 3 Zrotation Xrotation Yrotation
                End Site
                {
                  OFFSET 0 0 0
                }
              }
            }
          }
        }
      }
    }
  }
}
MOTION
Frames:	19
Frame Time:	0.0333333
122.357 87.7346 41.5548 -88.4998 -28.5432 -101.522 -168.608 -8.2364 81.9247 -51.9761 20.8009 -5.52746 40.0535 -21.6794 -14.9076 30.4496 -4.45438 10.0443 162.835 28.669 90.5793 -44.1485 6.25991 11.7609 75.6172 -11.2193 -27.6276 32.7142 -1.92628 -0.862585 1.26978 6.49845 -91.2202 13.8954 1.92194 -2.70371 2.22289 1.80112 -2.78563 -20.3099 2.64549 -2.00134 -0.297201 2.64549 -2.00134 93.4747 -43.9362 -96.5732 -1.83648 -33.259 -75.9197 -30.1852 -6.72792 -77.8538 -38.2234 -10.7776 7.44207 -89.7567 -46.8816 78.4138 -4.16771 -55.3621 -22.58 9.55304 5.14625 -137.6 27.8744 3.98675 8.74467 -20.112 10.9203 21.5111 0.832091 12.1385 6.08752 
122.645 87.744 39.3794 -91.6946 -35.966 -102.708 -166.959 -9.06654 85.8278 -48.8871 22.1535 -5.79039 43.1812 -21.0834 -7.09603 31.8696 -3.70053 12.0867 160.689 27.1891 89.9747 -44.4996 7.50042 13.7596 74.6045 -9.42495 -28.3328 33.6735 -2.56267 -0.543459 1.27335 6.80297 -90.7867 13.285 2.14709 -1.8448 1.61438 2.06384 -1.93751 -20.9304 2.6022 -1.11406 -0.917729 2.60218 -1.11407 93.7961 -42.6517 -96.281 0.802571 -31.151 -80.4116 -27.0788 -4.02311 -76.0842 -35.3344 -9.32938 5.1858 -90.9631 -48.3119 76.8948 -18.4732 -49.2493 -39.6265 11.8975 5.63551 -136.802 25.6908 3.49843 8.66033 -18.5006 10.1617 20.6129 0.620099 10.9091 3.72504 
122.881 88.3369 37.1178 -94.9552 -44.0765 -104.264 -164.81 -7.93118 90.3517 -44.4727 23.8598 -6.67618 44.242 -24.0369 2.27012 40.0402 3.66373 21.8915 160.933 25.3587 89.7885 -42.4573 8.66358 14.5168 73.1734 -6.69204 -30.1996 33.2868 -1.89584 -1.98971 1.46576 7.00528 -90.3807 12.8794 2.72805 -1.08976 1.21072 2.67744 -1.20883 -21.3471 2.92933 -0.21884 -1.33446 2.92934 -0.218849 93.3767 -41.1678 -97.2946 3.00378 -28.0939 -82.1802 -28.1825 -2.86971 -73.5818 -33.4867 -8.76046 5.31968 -92.1469 -49.1222 75.3075 -26.5996 -36.7865 -48.3093 14.4118 6.44577 -133.283 23.0882 2.92102 8.5314 -21.4565 8.2322 17.2675 2.85215 9.42886 3.57425 
122.563 89.1492 35.1444 -100.48 -54.4893 -108.045 -162.621 -5.29138 95.1767 -46.3093 18.6273 -5.96713 48.9383 -18.6488 6.77761 37.5825 -1.57089 22.7953 161.503 23.3284 89.1697 -41.4133 10.9152 14.8669 71.6841 -3.99117 -29.5876 32.1104 -0.00882993 -5.58764 1.50703 7.17014 -89.9545 12.5413 3.01569 -0.258679 0.873793 3.00135 -0.391265 -21.6887 2.95387 0.660446 -1.67599 2.95387 0.660441 93.5946 -39.1326 -97.3444 6.91545 -25.0495 -81.9689 -28.388 -0.620279 -69.8139 -31.817 -7.84561 3.00947 -92.2474 -48.7381 75.058 -26.1457 -18.7123 -50.0533 20.1758 1.85703 -125.689 20.3144 2.33209 7.14586 -25.0346 7.04193 12.4784 4.18183 8.34155 2.01967 
121.936 91.1791 33.919 -109.843 -65.7267 -116.29 -162.048 -6.10904 99.3197 -38.8832 15.3838 -6.22134 51.868 -16.2361 10.3345 36.2285 -1.59425 19.3999 161.289 19.6381 88.0266 -37.1235 9.8408 14.2616 67.67 0.822097 -29.0848 33.5809 -0.3993 -7.20242 1.56559 7.27744 -89.6361 12.3183 3.28397 0.355553 0.651454 3.29644 0.21051 -21.9127 3.02517 1.32696 -1.90004 3.02516 1.32695 94.0678 -36.8607 -96.9804 13.1951 -21.433 -77.9225 -28.4523 0.30215 -67.239 -31.3581 -7.61637 2.42592 -91.0481 -45.6222 76.1026 -26.4808 -4.73867 -51.6764 26.2425 2.38523 -118.689 20.2497 2.31125 7.59701 -30.1259 5.91421 7.40235 6.34883 7.09713 0.928787 
121.491 93.1275 33.1832 -131.719 -79.0011 -137.518 -164.089 -4.67655 102.187 -30.59 12.2092 -4.69096 52.3558 -14.6277 7.16885 35.7206 0.445218 15.1807 161.805 18.3526 86.8081 -34.0718 8.611 13.2116 65.6827 2.54901 -27.511 30.5016 2.4319 -9.43493 1.29543 7.12281 -89.3569 12.6186 2.88007 0.948058 0.950585 2.919 0.820273 -21.6017 2.46196 1.77017 -1.58905 2.46196 1.77017 95.5853 -32.2326 -95.0705 23.0135 -18.0393 -72.6894 -30.0903 1.53118 -65.3163 -28.3263 -6.63012 1.63322 -89.8154 -42.8081 77.3632 -24.5893 5.19997 -54.3247 27.2168 7.12426 -112.16 21.517 2.58859 5.75528 -33.3488 5.63997 3.45806 7.27305 6.18797 -1.542 
121.076 94.9157 32.3904 126.119 -79.1851 121.406 -166.633 -0.914362 104.864 -24.3773 16.6798 -2.43232 50.8217 -14.5508 -1.92077 37.156 2.31647 15.9741 162.924 16.4185 86.2189 -31.885 7.35722 10.5049 61.7431 5.1589 -22.4885 31.2751 2.61035 -11.329 0.719372 6.97743 -88.9429 12.9002 1.93513 1.88023 1.22949 2.01601 1.79325 -21.3007 1.28076 2.37471 -1.28801 1.28077 2.37471 95.0214 -36.8711 -95.2306 27.115 -10.1129 -65.7397 -30.1921 0.138067 -65.349 -24.1951 -5.34987 0.364975 -87.1421 -35.5412 80.1749 -25.2043 12.3461 -58.8496 26.4502 12.6994 -107.173 19.8057 2.29103 3.97024 -36.0444 6.96679 -5.91804 8.26358 6.06753 -0.238956 
121.561 95.572 30.9419 102.58 -64.7186 99.2665 -169.369 5.57108 106.202 -26.0123 18.1734 -0.553629 52.6686 -12.8036 -1.01516 35.7526 1.23739 14.0383 163.906 16.9331 85.017 -34.8122 3.37978 7.99102 58.9384 6.31273 -17.3777 31.4031 2.92139 -12.3917 0.0246253 7.0003 -88.7409 12.8598 0.652078 2.43895 1.18677 0.758745 2.4079 -21.33 -0.110816 2.52213 -1.31735 -0.110817 2.52213 93.8584 -38.8407 -96.9377 28.4098 -1.47352 -60.0992 -26.5047 2.54338 -64.2574 -17.2098 -3.40403 -2.43014 -86.2703 -33.8763 81.3776 -18.2341 17.3738 -62.1956 24.5785 12.0134 -103.622 19.7403 2.28088 3.89564 -37.9439 7.30715 -7.68682 10.1908 5.39803 -4.4243 
122.52 95.1821 28.9082 97.0534 -53.1103 95.2824 -169.229 10.396 106.728 -29.3018 16.4712 -1.27659 53.1946 -11.7954 -1.40933 34.8942 -0.23308 14.1535 166.462 19.6485 83.8983 -40.7513 -3.52222 4.54377 58.3356 5.27088 -12.1022 29.3399 4.45919 -12.4854 -0.342239 7.08103 -88.5919 12.7034 -0.0069101 2.81495 1.02943 0.116965 2.8125 -21.4829 -0.85227 2.68293 -1.47025 -0.852277 2.68293 91.4191 -44.7864 -99.7858 23.0058 5.88504 -55.0806 -26.2283 4.60903 -61.7733 -13.9459 -2.60804 -1.73729 -85.1361 -33.3898 83.3681 -10.1776 20.9133 -65.777 20.19 9.95428 -100.54 18.6839 2.13043 2.64113 -38.8558 7.28375 -9.20452 11.2397 4.34812 -8.53892 
123.258 94.2208 26.6413 94.2467 -45.5565 93.6545 -168.76 12.1313 106.121 -32.001 19.1798 -2.38185 55.8143 -9.0804 2.02497 36.548 3.91167 11.6673 171.609 20.7224 83.0975 -40.5798 -7.39098 0.209098 60.1193 -0.232984 0.265271 36.3417 -0.488056 -12.732 -0.532238 7.07428 -88.6331 12.7223 -0.403817 2.77976 1.04843 -0.281123 2.7948 -21.4666 -1.22034 2.53017 -1.45399 -1.22033 2.53017 88.3473 -47.1709 -104.111 14.4136 9.2223 -49.8317 -26.6402 10.2676 -54.7761 -12.5124 -2.28437 -3.45522 -84.2256 -34.6521 85.2722 -1.64131 26.0472 -67.4505 21.471 2.14031 -98.0485 17.7026 1.96628 2.643 -39.2667 6.04286 -6.59874 11.5961 2.78947 -13.9326 
123.781 93.1348 24.4953 91.3124 -38.5515 91.4 -169.095 14.7294 104.812 -31.5668 15.3442 -3.16344 58.7631 -4.62317 0.386459 37.496 7.74555 6.92411 175.24 19.3425 82.0513 -29.3356 -1.06953 -2.23074 61.7969 -3.21868 4.18284 44.1765 -6.77199 -8.42067 -0.83469 6.85061 -88.4127 13.1751 -0.89202 3.28707 1.50017 -0.746544 3.32308 -21.0106 -1.83829 2.8676 -0.997984 -1.83829 2.8676 81.6283 -56.5824 -111.163 -2.53735 8.12053 -42.7647 -26.5076 18.5197 -47.2479 -11.6775 -2.10264 -3.93974 -82.9939 -33.0932 87.3078 0.103565 29.4749 -67.3604 21.9147 0.0889668 -96.0673 15.2011 1.68822 0.346209 -40.1712 5.69292 -8.73339 10.9982 1.5992 -16.3523 
123.471 91.8569 22.6837 87.7586 -32.6159 88.1282 -169.411 20.2207 102.578 -32.2287 19.5644 -5.55085 61.445 -1.47603 5.01642 36.4563 6.94336 5.68051 176.428 22.1535 79.5147 -24.319 1.31825 -2.67787 61.0319 -4.5485 11.0424 41.0061 -5.08039 -7.15003 -1.16132 6.56666 -87.8557 13.7463 -1.25955 4.46358 2.06809 -1.06209 4.51453 -20.4228 -2.54186 3.88015 -0.410174 -2.54186 3.88016 67.1498 -71.0238 -124.098 -21.1418 3.63102 -38.8062 -31.1084 26.2557 -38.6107 -8.41854 -1.37059 -4.20348 -81.6298 -30.3833 89.5622 2.50372 31.754 -69.1463 20.6865 -1.49583 -93.2545 16.5916 1.87178 0.772807 -38.7025 6.01081 -15.6602 8.10372 1.07698 -15.0622 
122.924 89.7164 21.5483 86.4099 -25.2366 85.261 -170.683 26.1065 98.5848 -37.2842 20.5338 -5.67116 63.3894 1.57835 7.44033 36.1669 7.21168 4.34123 174.702 27.1524 76.6139 -30.1601 -1.2958 -1.88481 62.9968 -3.84118 -2.17342 35.2267 -3.76485 0.659473 -1.66088 6.57436 -87.1594 13.7422 -1.91177 5.94447 2.05871 -1.6488 6.02246 -20.4025 -3.6078 5.09869 -0.389859 -3.6078 5.09869 42.2732 -79.2804 -147.527 -28.2019 1.76198 -36.5331 -33.6917 32.2984 -34.1641 -7.59034 -1.2189 -4.77018 -81.5586 -30.5425 89.719 5.73964 30.0609 -68.617 19.847 -1.79093 -93.1097 17.345 1.99775 0.475494 -38.406 6.15358 -20.3435 7.37372 0.325264 -14.7233 
122.792 87.9157 21.0247 88.1872 -20.2665 85.3189 -171.127 28.1819 97.1207 -42.1097 25.7383 -4.85093 64.6027 4.43327 10.3374 36.4651 7.62331 4.29399 172.473 29.3022 74.0612 -38.7318 0.251371 -1.42098 66.7159 -6.71778 0.321999 34.93 -3.07453 -1.17846 -1.93014 6.77052 -86.7035 13.3561 -2.23749 6.88256 1.66838 -1.93318 6.97375 -20.7682 -4.19923 5.89752 -0.755526 -4.19922 5.89752 7.43085 -82.944 179.163 -27.8952 2.15703 -35.8127 -34.8518 33.7015 -32.6857 -8.28398 -1.36411 -4.61806 -80.7553 -29.0794 91.1475 6.79151 31.0179 -67.8802 20.6633 -4.04198 -92.3132 13.9114 1.51647 0.0977573 -40.2808 6.44566 -22.0906 8.0849 -0.383008 -15.2621 
123.336 86.8099 20.916 88.345 -17.1067 86.4364 -169.573 32.2151 97.6932 -47.9221 27.2394 -4.88918 64.7361 5.22621 8.45134 37.3279 9.03508 3.63624 170.911 30.1434 74.1285 -41.41 0.643663 -0.8821 65.5858 -4.05643 -4.30744 40.871 -7.56139 4.49682 -2.10381 6.63101 -86.6551 13.6457 -2.54866 7.03386 1.9577 -2.23741 7.13848 -20.4809 -4.54138 5.9488 -0.468292 -4.54137 5.9488 -30.0452 -83.2623 142.971 -25.6959 4.16712 -35.2412 -35.3381 31.5252 -33.8894 -6.21165 -0.942138 -5.15695 -80.4916 -27.945 91.5724 8.25015 37.457 -66.6414 25.0777 -11.9107 -89.1707 10.9066 1.29832 -2.10405 -44.5412 6.80824 -21.8531 9.38122 -1.24568 -16.0797 
123.99 85.8619 21.2999 89.0568 -15.1594 87.3167 -168.024 34.062 98.7483 -50.998 30.67 -5.27009 65.1753 6.18802 9.71595 37.742 10.262 1.98393 168.04 30.9321 73.4093 -45.7579 0.710533 0.46867 67.7068 -6.18597 -1.17088 41.7051 -7.74322 3.41828 -2.27041 6.5697 -86.5866 13.7786 -2.84112 7.21661 2.09005 -2.52163 7.33381 -20.3495 -4.87504 6.03578 -0.336914 -4.87506 6.03579 -51.753 -82.1622 122.194 -24.66 3.89043 -35.0115 -35.826 32.4748 -33.9304 -7.70894 -1.2565 -4.94791 -79.8493 -25.682 92.7093 4.1451 40.9929 -63.653 26.9122 -13.9791 -89.7716 9.58405 1.37334 -4.28905 -46.0544 7.12155 -21.2249 9.37555 -1.08675 -16.1012 
124.682 85.3705 21.2269 89.5946 -14.6485 87.8725 -167.395 33.9173 98.8811 -52.294 31.1791 -5.20948 66.0699 7.98545 11.2072 37.5965 10.1828 1.74769 164.295 31.4403 72.7975 -46.9581 1.6639 2.6353 69.8032 -8.15855 0.63094 40.3878 -7.20214 3.89682 -2.34059 6.47688 -86.5463 13.9684 -2.95355 7.32315 2.27954 -2.62931 7.44514 -20.1592 -5.01416 6.10393 -0.146564 -5.01416 6.10391 -62.1946 -81.0638 112.364 -23.4729 5.01195 -34.9363 -35.3283 31.1964 -35.4277 -8.22751 -1.35192 -4.62537 -79.3813 -23.9487 93.5849 2.45287 42.3395 -62.7839 27.6148 -15.501 -91.0335 6.73449 0.980051 -3.64066 -46.038 7.04901 -21.3147 8.78601 -0.985571 -15.2534 
125.27 85.2175 21.1153 90.0466 -14.2004 88.4341 -168.176 33.1313 98.9092 -52.9336 31.6329 -4.27561 66.2237 8.82164 12.7413 38.1875 10.8923 1.76984 161.956 31.3553 72.357 -47.4965 3.50084 3.97942 71.1427 -9.11877 3.05757 40.598 -7.54361 5.0313 -2.42287 6.44528 -86.5731 14.0383 -3.12709 7.29694 2.34989 -2.80384 7.42655 -20.0948 -5.17194 6.02669 -0.0821665 -5.17192 6.0267 -55.5154 -81.8428 118.638 -20.5303 6.77419 -34.0673 -35.1321 29.6412 -36.836 -8.30704 -1.38829 -4.94714 -78.8553 -23.0915 94.681 2.21376 39.8151 -63.6291 25.6697 -12.6808 -93.2657 8.14382 0.97817 -2.33704 -45.2232 6.08037 -20.6957 7.57839 -1.4935 -15.6774 
125.734 85.1384 20.9886 90.2897 -14.4405 88.9117 -168.644 32.5798 98.9599 -53.498 31.1083 -3.47973 66.4408 9.77708 14.018 38.4069 11.3721 1.22823 161.256 31.063 72.1653 -47.622 5.26667 4.58463 71.2713 -8.78151 5.00473 41.6533 -8.50136 7.38038 -2.46441 6.41702 -86.5582 14.0976 -3.19985 7.34037 2.40914 -2.87459 7.47311 -20.0361 -5.25433 6.04638 -0.0234578 -5.25433 6.04638 -56.852 -81.7131 117.378 -20.6357 5.53945 -34.0911 -35.9612 30.15 -36.2716 -7.85953 -1.30529 -5.19976 -78.4669 -21.4949 95.4786 2.03925 38.7218 -65.259 24.6761 -11.0957 -93.8755 8.52594 1.03643 -2.42567 -43.7015 5.64158 -21.8201 6.12332 -1.59013 -14.4209 
